<svg width="283" height="188" viewBox="0 0 283 188" fill="none" xmlns="http://www.w3.org/2000/svg">
<g clip-path="url(#clip0)">
<g filter="url(#filter0_d)">
<path d="M98.2638 32.3535H24.8934C21.0342 32.3535 17.9058 35.4854 17.9058 39.3489V152.149C17.9058 156.012 21.0342 159.144 24.8934 159.144H98.2638C102.123 159.144 105.251 156.012 105.251 152.149V39.3489C105.251 35.4854 102.123 32.3535 98.2638 32.3535Z" fill="white"/>
</g>
<path d="M93.7511 40.2236H29.4064C27.4768 40.2236 25.9126 41.7896 25.9126 43.7213V103.036C25.9126 104.968 27.4768 106.534 29.4064 106.534H93.7511C95.6807 106.534 97.2449 104.968 97.2449 103.036V43.7213C97.2449 41.7896 95.6807 40.2236 93.7511 40.2236Z" fill="#F6F6F6"/>
<path d="M37.0128 46.0527C36.4601 46.0527 35.9596 46.2731 35.5971 46.6291L35.0109 47.2055L34.4248 46.6291C34.0625 46.2731 33.5621 46.0527 33.0095 46.0527C31.9043 46.0527 31.0078 46.9334 31.0078 48.0203C31.0078 48.5635 31.232 49.0553 31.5942 49.4114L34.5394 52.4197C34.7988 52.6745 35.2236 52.6745 35.4831 52.4197L38.428 49.4114C38.7903 49.0552 39.0145 48.5633 39.0145 48.0203C39.0145 46.934 38.1186 46.0527 37.0128 46.0527Z" fill="#5D3EBC"/>
<path d="M51.534 116.006H29.4064C27.4768 116.006 25.9126 117.572 25.9126 119.504V124.896C25.9126 126.828 27.4768 128.394 29.4064 128.394H51.534C53.4636 128.394 55.0278 126.828 55.0278 124.896V119.504C55.0278 117.572 53.4636 116.006 51.534 116.006Z" fill="#F6F6F6"/>
<path d="M31.0078 122.565C31.0078 121.759 31.6596 121.107 32.4636 121.107H48.4769C49.281 121.107 49.9327 121.759 49.9327 122.565C49.9327 123.369 49.281 124.022 48.4769 124.022H32.4636C31.6596 124.022 31.0078 123.369 31.0078 122.565Z" fill="#F6F6F6"/>
<path d="M31.0078 122.565C31.0078 121.759 31.6596 121.107 32.4636 121.107H48.4769C49.281 121.107 49.9327 121.759 49.9327 122.565C49.9327 123.369 49.281 124.022 48.4769 124.022H32.4636C31.6596 124.022 31.0078 123.369 31.0078 122.565Z" fill="#DCE0E7"/>
<path d="M25.9126 136.409C25.9126 135.605 26.5644 134.953 27.3684 134.953H95.7894C96.593 134.953 97.2446 135.605 97.2446 136.409C97.2446 137.215 96.593 137.867 95.7894 137.867H27.3684C26.5644 137.867 25.9126 137.215 25.9126 136.409Z" fill="#F6F6F6"/>
<path d="M25.9126 136.409C25.9126 135.605 26.5644 134.953 27.3684 134.953H95.7894C96.593 134.953 97.2446 135.605 97.2446 136.409C97.2446 137.215 96.593 137.867 95.7894 137.867H27.3684C26.5644 137.867 25.9126 137.215 25.9126 136.409Z" fill="#DCE0E7"/>
<path d="M25.9126 142.968C25.9126 142.163 26.5644 141.511 27.3684 141.511H53.5721C54.3761 141.511 55.0279 142.163 55.0279 142.968C55.0279 143.773 54.3761 144.425 53.5721 144.425H27.3684C26.5644 144.425 25.9126 143.773 25.9126 142.968Z" fill="#F6F6F6"/>
<path d="M25.9126 142.968C25.9126 142.163 26.5644 141.511 27.3684 141.511H53.5721C54.3761 141.511 55.0279 142.163 55.0279 142.968C55.0279 143.773 54.3761 144.425 53.5721 144.425H27.3684C26.5644 144.425 25.9126 143.773 25.9126 142.968Z" fill="#DCE0E7"/>
<g filter="url(#filter1_d)">
<path d="M258.107 32.3535H184.736C180.877 32.3535 177.749 35.4854 177.749 39.3489V152.149C177.749 156.012 180.877 159.144 184.736 159.144H258.107C261.966 159.144 265.094 156.012 265.094 152.149V39.3489C265.094 35.4854 261.966 32.3535 258.107 32.3535Z" fill="white"/>
</g>
<path d="M253.594 40.2236H189.249C187.32 40.2236 185.755 41.7896 185.755 43.7213V103.036C185.755 104.968 187.32 106.534 189.249 106.534H253.594C255.523 106.534 257.088 104.968 257.088 103.036V43.7213C257.088 41.7896 255.523 40.2236 253.594 40.2236Z" fill="#F6F6F6"/>
<path d="M194.235 46.0527C193.682 46.0527 193.182 46.2731 192.819 46.6291L192.233 47.2055L191.647 46.6291C191.284 46.2731 190.784 46.0527 190.232 46.0527C189.126 46.0527 188.23 46.9334 188.23 48.0203C188.23 48.5635 188.454 49.0553 188.816 49.4114L191.761 52.4197C192.021 52.6745 192.445 52.6745 192.706 52.4197L195.65 49.4114C196.012 49.0552 196.237 48.5633 196.237 48.0203C196.237 46.934 195.341 46.0527 194.235 46.0527Z" fill="#5D3EBC"/>
<path d="M211.377 116.006H189.249C187.32 116.006 185.755 117.572 185.755 119.504V124.896C185.755 126.828 187.32 128.394 189.249 128.394H211.377C213.306 128.394 214.871 126.828 214.871 124.896V119.504C214.871 117.572 213.306 116.006 211.377 116.006Z" fill="#F6F6F6"/>
<path d="M190.85 122.565C190.85 121.759 191.502 121.107 192.306 121.107H208.319C209.123 121.107 209.776 121.759 209.776 122.565C209.776 123.369 209.123 124.022 208.319 124.022H192.306C191.502 124.022 190.85 123.369 190.85 122.565Z" fill="#F6F6F6"/>
<path d="M190.85 122.565C190.85 121.759 191.502 121.107 192.306 121.107H208.319C209.123 121.107 209.776 121.759 209.776 122.565C209.776 123.369 209.123 124.022 208.319 124.022H192.306C191.502 124.022 190.85 123.369 190.85 122.565Z" fill="#DCE0E7"/>
<path d="M185.755 136.409C185.755 135.605 186.407 134.953 187.211 134.953H255.632C256.435 134.953 257.087 135.605 257.087 136.409C257.087 137.215 256.435 137.867 255.632 137.867H187.211C186.407 137.867 185.755 137.215 185.755 136.409Z" fill="#F6F6F6"/>
<path d="M185.755 136.409C185.755 135.605 186.407 134.953 187.211 134.953H255.632C256.435 134.953 257.087 135.605 257.087 136.409C257.087 137.215 256.435 137.867 255.632 137.867H187.211C186.407 137.867 185.755 137.215 185.755 136.409Z" fill="#DCE0E7"/>
<path d="M185.755 142.968C185.755 142.163 186.407 141.511 187.211 141.511H213.414C214.219 141.511 214.87 142.163 214.87 142.968C214.87 143.773 214.219 144.425 213.414 144.425H187.211C186.407 144.425 185.755 143.773 185.755 142.968Z" fill="#F6F6F6"/>
<path d="M185.755 142.968C185.755 142.163 186.407 141.511 187.211 141.511H213.414C214.219 141.511 214.87 142.163 214.87 142.968C214.87 143.773 214.219 144.425 213.414 144.425H187.211C186.407 144.425 185.755 143.773 185.755 142.968Z" fill="#DCE0E7"/>
<g filter="url(#filter2_d)">
<path d="M187.356 13.9907H96.517C92.6578 13.9907 89.5293 17.1226 89.5293 20.9861V160.019C89.5293 163.882 92.6578 167.014 96.517 167.014H187.356C191.216 167.014 194.344 163.882 194.344 160.019V20.9861C194.344 17.1226 191.216 13.9907 187.356 13.9907Z" fill="white"/>
</g>
<path d="M181.242 24.4839H102.631C100.702 24.4839 99.1375 26.0498 99.1375 27.9816V100.558C99.1375 102.49 100.702 104.056 102.631 104.056H181.242C183.172 104.056 184.736 102.49 184.736 100.558V27.9816C184.736 26.0498 183.172 24.4839 181.242 24.4839Z" fill="#F6F6F6"/>
<path d="M112.457 31.4795C111.795 31.4795 111.194 31.7439 110.759 32.1712L110.055 32.8628L109.351 32.1712C108.917 31.7439 108.316 31.4795 107.653 31.4795C106.328 31.4795 105.251 32.5363 105.251 33.8406C105.251 34.4923 105.52 35.0826 105.955 35.5099L109.489 39.1199C109.8 39.4257 110.311 39.4257 110.621 39.1199L114.155 35.5099C114.59 35.0824 114.859 34.4922 114.859 33.8406C114.859 32.537 113.784 31.4795 112.457 31.4795Z" fill="#5D3EBC"/>
<path d="M130.582 115.423H102.631C100.702 115.423 99.1375 116.989 99.1375 118.921V126.791C99.1375 128.722 100.702 130.288 102.631 130.288H130.582C132.511 130.288 134.076 128.722 134.076 126.791V118.921C134.076 116.989 132.511 115.423 130.582 115.423Z" fill="#F6F6F6"/>
<path d="M105.251 123.293C105.251 122.327 106.033 121.544 106.998 121.544H126.214C127.18 121.544 127.961 122.327 127.961 123.293C127.961 124.259 127.18 125.042 126.214 125.042H106.998C106.033 125.042 105.251 124.259 105.251 123.293Z" fill="#F6F6F6"/>
<path d="M105.251 123.293C105.251 122.327 106.033 121.544 106.998 121.544H126.214C127.18 121.544 127.961 122.327 127.961 123.293C127.961 124.259 127.18 125.042 126.214 125.042H106.998C106.033 125.042 105.251 124.259 105.251 123.293Z" fill="#DCE0E7"/>
<path d="M99.1375 139.907C99.1375 138.942 99.9192 138.158 100.884 138.158H182.989C183.954 138.158 184.736 138.942 184.736 139.907C184.736 140.873 183.954 141.656 182.989 141.656H100.884C99.9192 141.656 99.1375 140.873 99.1375 139.907Z" fill="#F6F6F6"/>
<path d="M99.1375 139.907C99.1375 138.942 99.9192 138.158 100.884 138.158H182.989C183.954 138.158 184.736 138.942 184.736 139.907C184.736 140.873 183.954 141.656 182.989 141.656H100.884C99.9192 141.656 99.1375 140.873 99.1375 139.907Z" fill="#DCE0E7"/>
<path d="M99.1375 147.777C99.1375 146.811 99.9192 146.028 100.884 146.028H132.329C133.294 146.028 134.076 146.811 134.076 147.777C134.076 148.743 133.294 149.525 132.329 149.525H100.884C99.9192 149.525 99.1375 148.743 99.1375 147.777Z" fill="#F6F6F6"/>
<path d="M99.1375 147.777C99.1375 146.811 99.9192 146.028 100.884 146.028H132.329C133.294 146.028 134.076 146.811 134.076 147.777C134.076 148.743 133.294 149.525 132.329 149.525H100.884C99.9192 149.525 99.1375 148.743 99.1375 147.777Z" fill="#DCE0E7"/>
</g>
<defs>
<filter id="filter0_d" x="-2.09424" y="16.3535" width="127.346" height="166.791" filterUnits="userSpaceOnUse" color-interpolation-filters="sRGB">
<feFlood flood-opacity="0" result="BackgroundImageFix"/>
<feColorMatrix in="SourceAlpha" type="matrix" values="0 0 0 0 0 0 0 0 0 0 0 0 0 0 0 0 0 0 127 0" result="hardAlpha"/>
<feOffset dy="4"/>
<feGaussianBlur stdDeviation="10"/>
<feColorMatrix type="matrix" values="0 0 0 0 0.411765 0 0 0 0 0.454902 0 0 0 0 0.533333 0 0 0 0.15 0"/>
<feBlend mode="normal" in2="BackgroundImageFix" result="effect1_dropShadow"/>
<feBlend mode="normal" in="SourceGraphic" in2="effect1_dropShadow" result="shape"/>
</filter>
<filter id="filter1_d" x="157.749" y="16.3535" width="127.346" height="166.791" filterUnits="userSpaceOnUse" color-interpolation-filters="sRGB">
<feFlood flood-opacity="0" result="BackgroundImageFix"/>
<feColorMatrix in="SourceAlpha" type="matrix" values="0 0 0 0 0 0 0 0 0 0 0 0 0 0 0 0 0 0 127 0" result="hardAlpha"/>
<feOffset dy="4"/>
<feGaussianBlur stdDeviation="10"/>
<feColorMatrix type="matrix" values="0 0 0 0 0.411765 0 0 0 0 0.454902 0 0 0 0 0.533333 0 0 0 0.15 0"/>
<feBlend mode="normal" in2="BackgroundImageFix" result="effect1_dropShadow"/>
<feBlend mode="normal" in="SourceGraphic" in2="effect1_dropShadow" result="shape"/>
</filter>
<filter id="filter2_d" x="69.5293" y="-2.00928" width="144.815" height="193.023" filterUnits="userSpaceOnUse" color-interpolation-filters="sRGB">
<feFlood flood-opacity="0" result="BackgroundImageFix"/>
<feColorMatrix in="SourceAlpha" type="matrix" values="0 0 0 0 0 0 0 0 0 0 0 0 0 0 0 0 0 0 127 0" result="hardAlpha"/>
<feOffset dy="4"/>
<feGaussianBlur stdDeviation="10"/>
<feColorMatrix type="matrix" values="0 0 0 0 0.411765 0 0 0 0 0.454902 0 0 0 0 0.533333 0 0 0 0.15 0"/>
<feBlend mode="normal" in2="BackgroundImageFix" result="effect1_dropShadow"/>
<feBlend mode="normal" in="SourceGraphic" in2="effect1_dropShadow" result="shape"/>
</filter>
<clipPath id="clip0">
<rect width="283" height="188" fill="white"/>
</clipPath>
</defs>
</svg>
