<svg width="13" height="13" viewBox="0 0 13 13" fill="none" xmlns="http://www.w3.org/2000/svg">
<path d="M11.328 5.42548L8.98672 6.87833L7.102 8.04684C6.5322 8.4007 5.60111 8.4007 5.03138 8.04684L2.93488 6.74684L0.805209 5.42547C0.362315 5.15018 0 5.35758 0 5.88357V11.0841C0 11.8373 0.606667 12.4525 1.34815 12.4525H10.7857C11.5267 12.4525 12.1333 11.8373 12.1333 11.0847V5.88356C12.1333 5.35756 11.771 5.15017 11.3281 5.42545L11.328 5.42548Z" fill="#FFD300"/>
<path fill-rule="evenodd" clip-rule="evenodd" d="M6.06667 7.7652C6.3563 7.7652 6.63173 7.69678 6.82132 7.57971L10.7857 5.1197V1.50461C10.7857 0.751975 10.178 0.136719 9.437 0.136719H2.69626C1.95477 0.136719 1.34863 0.751975 1.34863 1.50461V5.1197L5.31246 7.57971C5.50098 7.69678 5.77641 7.7652 6.06659 7.7652H6.06667ZM4.04444 2.18835H8.08889C8.27531 2.18835 8.42593 2.34177 8.42593 2.53099C8.42593 2.72075 8.27478 2.87363 8.08889 2.87363L4.04444 2.87417C3.85855 2.87417 3.70741 2.72075 3.70741 2.53153C3.70741 2.34177 3.85855 2.18836 4.04444 2.18835ZM4.04444 4.24207C3.85855 4.24207 3.70741 4.39548 3.70741 4.58364C3.70741 4.7734 3.85855 4.92681 4.04444 4.92681L8.08889 4.92628C8.27478 4.92628 8.42593 4.77286 8.42593 4.58364C8.42593 4.39548 8.27531 4.24207 8.08889 4.24207H4.04444Z" fill="#5D38C0"/>
</svg>
