<svg width="28" height="18" viewBox="0 0 28 18" fill="none" xmlns="http://www.w3.org/2000/svg">
<path d="M15.4553 3.30233C15.0285 2.76138 14.5396 2.27248 13.9987 1.8457C12.9688 2.65543 12.1363 3.68841 11.5638 4.86676C10.9913 6.04511 10.6938 7.33807 10.6938 8.64812C10.6938 9.95817 10.9913 11.2511 11.5638 12.4295C12.1363 13.6078 12.9688 14.6408 13.9987 15.4505C15.8024 14.0325 16.9691 11.9561 17.2423 9.67803C17.5154 7.39993 16.8726 5.10661 15.4553 3.30233Z" fill="#FF5F01"/>
<path d="M10.6936 8.64845C10.6929 7.3386 10.9901 6.04574 11.5627 4.86767C12.1353 3.6896 12.9683 2.65716 13.9986 1.84843C12.722 0.84558 11.1889 0.22209 9.57473 0.0492089C7.96052 -0.123672 6.33022 0.161031 4.87014 0.870784C3.41007 1.58054 2.1791 2.68671 1.31789 4.06291C0.456693 5.4391 0 7.02981 0 8.65325C0 10.2767 0.456693 11.8674 1.31789 13.2436C2.1791 14.6198 3.41007 15.726 4.87014 16.4357C6.33022 17.1455 7.96052 17.4302 9.57473 17.2573C11.1889 17.0844 12.722 16.4609 13.9986 15.4581C12.9667 14.6486 12.1328 13.6147 11.5601 12.4347C10.9874 11.2548 10.6911 9.95998 10.6936 8.64845Z" fill="#EA001B"/>
<path d="M26.1492 3.30038C24.729 1.49812 22.6511 0.333735 20.3725 0.0632796C18.0939 -0.207176 15.8012 0.438449 13.9986 1.85817C14.5395 2.28494 15.0284 2.77384 15.4552 3.3148C16.1574 4.20826 16.6767 5.23128 16.9835 6.32544C17.2903 7.41961 17.3786 8.56349 17.2434 9.69178C17.1081 10.8201 16.7519 11.9107 16.1952 12.9013C15.6384 13.8919 14.892 14.7632 13.9986 15.4654C15.276 16.4697 16.8104 17.0941 18.4262 17.2669C20.0419 17.4398 21.6737 17.1542 23.1347 16.4429C24.5957 15.7316 25.8269 14.6233 26.6873 13.2449C27.5477 11.8664 28.0027 10.2735 28 8.64857C27.9988 6.70897 27.3471 4.82581 26.1492 3.30038Z" fill="#F79E1C"/>
</svg>
