<svg width="22" height="18" viewBox="0 0 22 18" fill="none" xmlns="http://www.w3.org/2000/svg">
<path d="M7.46348 17.0094L5.90588 16.9829V7.51459L7.46348 7.54348V17.0094Z" fill="#5C250C"/>
<path d="M6.72926 16.9972L6.03833 16.9852V7.51691L6.72926 7.52894V16.9972Z" fill="#762706"/>
<path d="M6.30796 16.9878L6.125 16.9854V7.51944L6.30796 7.52185V16.9878Z" fill="#9F3B08"/>
<path d="M6.72925 5.05417L3.34683 12.8132C3.17109 13.2177 3.4672 13.6727 3.91017 13.6727H9.55073C9.9937 13.6727 10.2898 13.2201 10.1141 12.8132L6.72925 5.05417Z" fill="#479946"/>
<path d="M6.72689 2.77429L4.33633 8.26075C4.16059 8.66519 4.4567 9.12019 4.89967 9.12019H8.55893C9.00189 9.12019 9.298 8.6676 9.12226 8.26075L6.72689 2.77429Z" fill="#81D681"/>
<path d="M6.72695 0.251404L5.11881 3.94437C4.94306 4.34881 5.23918 4.80381 5.68214 4.80381H7.77658C8.21954 4.80381 8.51566 4.35122 8.33992 3.94437L6.72695 0.251404Z" fill="#479946"/>
<path d="M16.4335 16.6795L15.1287 16.6578V8.71576L16.4335 8.73743V16.6795Z" fill="#5C250C"/>
<path d="M15.8196 16.6697L15.2394 16.6601V8.71805L15.8196 8.72768V16.6697Z" fill="#762706"/>
<path d="M15.4657 16.6625L15.3116 16.6601V8.71805L15.4633 8.72286L15.4657 16.6625Z" fill="#9F3B08"/>
<path d="M15.8171 6.6528L12.9812 13.16C12.832 13.4995 13.0823 13.8798 13.4531 13.8798H18.1836C18.5544 13.8798 18.8023 13.4995 18.6555 13.16L15.8171 6.6528Z" fill="#479946"/>
<path d="M15.8171 4.73892L13.8118 9.34189C13.6625 9.68133 13.9129 10.0617 14.2836 10.0617H17.353C17.7238 10.0617 17.9717 9.68133 17.8249 9.34189L15.8171 4.73892Z" fill="#81D681"/>
<path d="M15.8171 2.62268L14.4666 5.72104C14.3173 6.06049 14.5677 6.44086 14.9384 6.44086H16.6958C17.0665 6.44086 17.3145 6.06049 17.1676 5.72104L15.8171 2.62268Z" fill="#479946"/>
<path d="M11.7317 16.5135L10.7567 16.4967V10.5769L11.7317 10.5937V16.5135Z" fill="#5C250C"/>
<path d="M11.2719 16.5039L10.8409 16.4967V10.5769L11.2719 10.5841V16.5039Z" fill="#762706"/>
<path d="M11.0095 16.499L10.8963 16.4966L10.8939 10.5792H11.0095V16.499Z" fill="#9F3B08"/>
<path d="M11.272 9.03842L9.15828 13.8893C9.04754 14.1421 9.23291 14.4262 9.50976 14.4262H13.0366C13.3135 14.4262 13.4989 14.1421 13.3881 13.8893L11.272 9.03842Z" fill="#479946"/>
<path d="M11.2719 7.61087L9.77693 11.0414C9.66619 11.2942 9.85156 11.5783 10.1284 11.5783H12.4155C12.6923 11.5783 12.8777 11.2942 12.7669 11.0414L11.2719 7.61087Z" fill="#81D681"/>
<path d="M11.272 6.03403L10.2657 8.34273C10.155 8.59551 10.3403 8.87958 10.6172 8.87958H11.9268C12.2037 8.87958 12.3891 8.59551 12.2783 8.34273L11.272 6.03403Z" fill="#479946"/>
<path d="M20.4562 17.7436H19.2477V9.66677C19.2477 9.49825 19.3849 9.36343 19.551 9.36343H20.1505C20.319 9.36343 20.4538 9.50066 20.4538 9.66677L20.4562 17.7436Z" fill="#9F3B08"/>
<path d="M3.02419 17.7484H1.81567V9.63787C1.81567 9.46935 1.9529 9.33453 2.11901 9.33453H2.71845C2.88697 9.33453 3.02179 9.47176 3.02179 9.63787L3.02419 17.7484Z" fill="#9F3B08"/>
<path d="M0.166626 15.6782V15.4158H21.8333V15.6782C21.8333 15.8371 21.7057 15.9647 21.5468 15.9647H0.455515C0.294219 15.9671 0.166626 15.8371 0.166626 15.6782Z" fill="#9F3B08"/>
<path d="M0.166626 15.4423V14.5515C0.166626 14.3782 0.308663 14.2361 0.481996 14.2361H21.5179C21.6913 14.2361 21.8333 14.3782 21.8333 14.5515V15.4423H0.166626Z" fill="#E3631D"/>
<path d="M0.166626 13.5043V13.0686C0.166626 12.8567 0.339959 12.6834 0.551811 12.6834H21.4481C21.66 12.6834 21.8333 12.8567 21.8333 13.0686V13.5043C21.8333 13.7162 21.66 13.8895 21.4481 13.8895H0.551811C0.339959 13.8895 0.166626 13.7162 0.166626 13.5043Z" fill="#F57F3C"/>
<path d="M0.166626 11.9489V11.5132C0.166626 11.3014 0.339959 11.1281 0.551811 11.1281H21.4481C21.66 11.1281 21.8333 11.3014 21.8333 11.5132V11.9489C21.8333 12.1608 21.66 12.3341 21.4481 12.3341H0.551811C0.339959 12.3341 0.166626 12.1608 0.166626 11.9489Z" fill="#F57F3C"/>
<path d="M0.166626 10.3939V9.95812C0.166626 9.74627 0.339959 9.57294 0.551811 9.57294H21.4481C21.66 9.57294 21.8333 9.74627 21.8333 9.95812V10.3939C21.8333 10.6057 21.66 10.779 21.4481 10.779H0.551811C0.339959 10.779 0.166626 10.6081 0.166626 10.3939Z" fill="#F57F3C"/>
</svg>
