<svg width="10" height="16" viewBox="0 0 10 16" fill="none" xmlns="http://www.w3.org/2000/svg">
<path fill-rule="evenodd" clip-rule="evenodd" d="M0 0.712164C0 0.31956 0.31549 0 0.702788 0H9.06889C9.45924 0 9.77778 0.31956 9.77778 0.712164V2.39824H0V0.712164ZM3.52617 0.730429C3.51166 0.729668 3.49791 0.729668 3.48339 0.730429L3.48338 0.730437C3.26721 0.741851 3.10221 0.925979 3.11367 1.14131C3.12589 1.35587 3.30998 1.52098 3.52617 1.50957H6.25182C6.35648 1.51109 6.45731 1.47076 6.53217 1.39696C6.60627 1.32392 6.64828 1.22424 6.64828 1.12C6.64828 1.01575 6.60627 0.915321 6.53217 0.842277C6.45731 0.769234 6.35648 0.728907 6.25182 0.730429H3.52617Z" fill="#FFD300"/>
<path d="M0 3.17517H9.77778V12.409H0V3.17517Z" fill="#5D38C0"/>
<path fill-rule="evenodd" clip-rule="evenodd" d="M0 14.8765V13.1904H9.77774V14.8765C9.77774 15.2691 9.4592 15.5826 9.06885 15.5826H0.702788C0.31549 15.5826 0 15.2691 0 14.8765ZM5.51834 14.3896C5.51834 14.0464 5.23492 13.7626 4.88889 13.7626C4.54283 13.7626 4.25943 14.0449 4.25943 14.3896C4.25943 14.7342 4.54438 15.0165 4.88889 15.0165C5.23418 15.0165 5.51834 14.7335 5.51834 14.3896Z" fill="#FFD300"/>
</svg>
