<svg width="16" height="22" viewBox="0 0 16 22" fill="none" xmlns="http://www.w3.org/2000/svg">
<path d="M14.2088 21.8334H11.9698V8.89838H13.6984C13.9801 8.89838 14.2088 9.12708 14.2088 9.40875V21.8334Z" fill="#BBC1C4"/>
<path d="M4.03259 21.8335H1.7937V9.41128C1.7937 9.12961 2.0224 8.90091 2.30407 8.90091H4.03259V21.8335Z" fill="#BBC1C4"/>
<path d="M7.99992 0.166656C6.77936 0.166656 5.78992 1.1561 5.78992 2.37666H10.2099C10.2099 1.1561 9.22047 0.166656 7.99992 0.166656Z" fill="#4F545B"/>
<path d="M11.1681 2.01318H4.83175C4.59583 2.01318 4.40564 2.20337 4.40564 2.43929V3.00022H11.5918V2.43929C11.5942 2.20578 11.404 2.01318 11.1681 2.01318Z" fill="#BBC1C4"/>
<path d="M12.757 21.8333H3.24292V3.19271C3.24292 2.93512 3.45236 2.72568 3.70996 2.72568H12.2924C12.55 2.72568 12.7594 2.93512 12.7594 3.19271V21.8333H12.757Z" fill="#4F545B"/>
<path d="M6.10049 3.51526H3.8833V4.02564H6.10049V3.51526Z" fill="#F0EDE6"/>
<path d="M6.10049 4.58167H3.8833V5.09204H6.10049V4.58167Z" fill="#F0EDE6"/>
<path d="M6.10049 5.64816H3.8833V6.1585H6.10049V5.64816Z" fill="#F0EDE6"/>
<path d="M6.10049 6.71475H3.8833V7.22515H6.10049V6.71475Z" fill="#F0EDE6"/>
<path d="M6.10049 7.78122H3.8833V8.29159H6.10049V7.78122Z" fill="#F0EDE6"/>
<path d="M6.10049 8.84766H3.8833V9.35803H6.10049V8.84766Z" fill="#F0EDE6"/>
<path d="M6.10049 9.91409H3.8833V10.4244H6.10049V9.91409Z" fill="#F0EDE6"/>
<path d="M6.10049 10.9805H3.8833V11.4909H6.10049V10.9805Z" fill="#F0EDE6"/>
<path d="M6.10049 12.0472H3.8833V12.5576H6.10049V12.0472Z" fill="#F0EDE6"/>
<path d="M6.10049 13.1136H3.8833V13.624H6.10049V13.1136Z" fill="#F0EDE6"/>
<path d="M6.10049 14.1801H3.8833V14.6904H6.10049V14.1801Z" fill="#F0EDE6"/>
<path d="M6.10049 15.2465H3.8833V15.7569H6.10049V15.2465Z" fill="#F0EDE6"/>
<path d="M6.10049 16.3129H3.8833V16.8233H6.10049V16.3129Z" fill="#F0EDE6"/>
<path d="M12.1166 3.51526H9.89941V4.02564H12.1166V3.51526Z" fill="#F0EDE6"/>
<path d="M12.1166 4.58167H9.89941V5.09204H12.1166V4.58167Z" fill="#F0EDE6"/>
<path d="M12.1166 5.64816H9.89941V6.1585H12.1166V5.64816Z" fill="#F0EDE6"/>
<path d="M12.1166 6.71475H9.89941V7.22515H12.1166V6.71475Z" fill="#F0EDE6"/>
<path d="M12.1166 7.78122H9.89941V8.29159H12.1166V7.78122Z" fill="#F0EDE6"/>
<path d="M12.1166 8.84766H9.89941V9.35803H12.1166V8.84766Z" fill="#F0EDE6"/>
<path d="M12.1166 9.91409H9.89941V10.4244H12.1166V9.91409Z" fill="#F0EDE6"/>
<path d="M12.1166 10.9805H9.89941V11.4909H12.1166V10.9805Z" fill="#F0EDE6"/>
<path d="M12.1166 12.0472H9.89941V12.5576H12.1166V12.0472Z" fill="#F0EDE6"/>
<path d="M12.1166 13.1136H9.89941V13.624H12.1166V13.1136Z" fill="#F0EDE6"/>
<path d="M12.1166 14.1801H9.89941V14.6904H12.1166V14.1801Z" fill="#F0EDE6"/>
<path d="M12.1166 15.2465H9.89941V15.7569H12.1166V15.2465Z" fill="#F0EDE6"/>
<path d="M12.1166 16.3129H9.89941V16.8233H12.1166V16.3129Z" fill="#F0EDE6"/>
<path d="M9.21578 3.96063H6.7843V21.8332H9.21578V3.96063Z" fill="#BBC1C4"/>
<path d="M9.87056 18.718H6.31482V19.0575H9.87056V18.718Z" fill="#F0EDE6"/>
<path d="M11.469 18.056H4.71387V18.5663H11.469V18.056Z" fill="#F0EDE6"/>
<path d="M7.94941 16.2794C6.97441 16.2794 6.18237 17.069 6.18237 18.044L9.71404 18.0464C9.71404 17.0714 8.92441 16.2818 7.94941 16.2794Z" fill="#4F545B"/>
<path d="M15.9805 21.8334H14.1147V10.3838H15.4677C15.7494 10.3838 15.9781 10.6125 15.9781 10.8942V21.8334H15.9805Z" fill="#BBC1C4"/>
<path d="M1.88515 21.8334H0.0194092V10.8942C0.0194092 10.6125 0.248113 10.3838 0.529779 10.3838H1.88515V21.8334Z" fill="#BBC1C4"/>
</svg>
