<svg width="87" height="86" viewBox="0 0 87 86" fill="none" xmlns="http://www.w3.org/2000/svg">
<path d="M39.4037 45.0121H6.28613V82.3391C6.28613 84.3531 7.93292 85.9998 9.94683 85.9998L39.4037 85.9964V45.0121Z" fill="#E7E6FF"/>
<path d="M86.0615 37.8761V24.1529C86.0615 22.139 84.4147 20.4922 82.4008 20.4922H3.72222C1.70831 20.4922 0.0615234 22.139 0.0615234 24.1529V37.8761H86.0615Z" fill="#E7E6FF"/>
<path d="M46.7236 85.9963H76.3658C78.3797 85.9963 80.0265 84.3495 80.0265 82.3356L80.023 45.0121H46.7236V85.9963Z" fill="#E7E6FF"/>
<path d="M68.6813 13.5379V12.44C68.6813 8.96464 67.2164 5.85288 64.4717 3.47537C61.9089 1.27966 58.6153 0 54.9581 0C51.4827 0 48.0038 1.27966 45.4445 3.47537C44.5285 4.20613 43.6159 5.30396 42.8817 6.40181C42.1509 5.30396 41.2349 4.38791 40.3188 3.47537C37.756 1.27966 34.4624 0 30.8053 0C27.1446 0 23.851 1.27966 21.2917 3.47537C18.547 5.85288 17.082 8.96464 17.082 12.44V13.5379H68.6813Z" fill="#E7E6FF"/>
</svg>
