<svg width="46" height="34" viewBox="0 0 46 34" fill="none" xmlns="http://www.w3.org/2000/svg">
<path d="M1.81842 31.5059H8.28052V32.921H1.81842V31.5059Z" fill="#656D78"/>
<path d="M37.7187 31.5059H44.1808V32.921H37.7187V31.5059Z" fill="#656D78"/>
<rect x="0.382446" y="2.49414" width="45.2344" height="29.0117" fill="#697488" fill-opacity="0.39957"/>
<rect x="7.5625" y="9.57031" width="12.2061" height="14.8596" fill="#434A54"/>
<path d="M19.7686 9.57028H7.56249L3.25449 5.32471H19.7686V9.57028Z" fill="#656D78"/>
<path d="M19.7686 24.4297H7.56249L3.25449 28.6753H19.7686V24.4297Z" fill="#656D78"/>
<path d="M7.56249 24.4299L3.25449 28.6755V5.32471L7.56249 9.57028V24.4299Z" fill="#80858C"/>
<path d="M42.7448 5.32478L24.7946 0.371582V33.6288L42.7448 28.6756V5.32478Z" fill="#697488"/>
<path d="M31.9747 16.9999C31.9747 18.9541 31.0099 20.5378 29.8207 20.5378C28.6314 20.5378 27.6667 18.9541 27.6667 16.9999C27.6667 15.0457 28.6315 13.4619 29.8208 13.4619C31.01 13.4619 31.9747 15.0457 31.9747 16.9999Z" fill="#F6BB42"/>
<path d="M19.7686 0.371582H24.7946V33.6288H19.7686V0.371582Z" fill="#CCD1D9"/>
<path d="M37.0008 16.9999C37.0008 17.975 30.3291 18.7689 29.8923 18.7689C29.4568 18.7689 29.1027 17.975 29.1027 16.9999C29.1027 16.0228 29.4568 15.231 29.8923 15.231C30.3291 15.231 37.0008 16.0229 37.0008 16.9999Z" fill="#FFCE54"/>
<g opacity="0.2">
<path d="M30.5387 16.9999C30.5387 16.2464 30.7505 15.6072 31.0463 15.3522C30.437 15.2748 29.9932 15.231 29.8922 15.231C29.4567 15.231 29.1026 16.0228 29.1026 16.9999C29.1026 17.975 29.4567 18.7689 29.8922 18.7689C29.9932 18.7689 30.4369 18.7247 31.0463 18.6473C30.7505 18.3924 30.5387 17.7524 30.5387 16.9999Z" fill="#3A3847"/>
</g>
<g opacity="0.3">
<path d="M29.8923 15.231C29.7927 15.231 29.698 15.2769 29.6103 15.3522C31.6333 15.6092 35.5647 16.2491 35.5647 16.9999C35.5647 17.7496 31.6332 18.3903 29.6103 18.6473C29.698 18.7233 29.7926 18.7689 29.8923 18.7689C30.3291 18.7689 37.0008 17.975 37.0008 16.9999C37.0008 16.0229 30.3291 15.231 29.8923 15.231Z" fill="white"/>
</g>
<path d="M23.3586 11.3392C23.3586 12.3167 22.8776 13.1088 22.2845 13.1088C21.6913 13.1088 21.2109 12.3166 21.2109 11.3392C21.2109 10.3621 21.6913 9.56982 22.2845 9.56982C22.8776 9.56982 23.3586 10.3621 23.3586 11.3392Z" fill="#656D78"/>
<g opacity="0.2">
<path d="M21.929 11.3392C21.929 10.5708 22.2276 9.92293 22.6435 9.67864C22.5306 9.61232 22.4107 9.56982 22.2845 9.56982C21.6912 9.56982 21.2109 10.3621 21.2109 11.3392C21.2109 12.3167 21.6913 13.1088 22.2845 13.1088C22.4106 13.1088 22.5305 13.0663 22.6435 13C22.2276 12.7557 21.929 12.108 21.929 11.3392Z" fill="black"/>
</g>
<path d="M23.3586 16.9998C23.3586 17.9773 22.8776 18.7698 22.2845 18.7698C21.6913 18.7698 21.2109 17.9773 21.2109 16.9998C21.2109 16.0227 21.6913 15.2305 22.2845 15.2305C22.8776 15.2305 23.3586 16.0227 23.3586 16.9998Z" fill="#656D78"/>
<g opacity="0.2">
<path d="M21.929 16.9998C21.929 16.2314 22.2276 15.5836 22.6435 15.3393C22.5306 15.273 22.4107 15.2305 22.2845 15.2305C21.6912 15.2305 21.2109 16.0227 21.2109 16.9998C21.2109 17.9776 21.6913 18.7695 22.2845 18.7695C22.4106 18.7695 22.5305 18.7273 22.6435 18.661C22.2276 18.4164 21.929 17.769 21.929 16.9998Z" fill="black"/>
</g>
<path d="M23.3586 22.6601C23.3586 23.6379 22.8776 24.4297 22.2845 24.4297C21.6913 24.4297 21.2109 23.6379 21.2109 22.6601C21.2109 21.683 21.6913 20.8911 22.2845 20.8911C22.8776 20.8911 23.3586 21.683 23.3586 22.6601Z" fill="#656D78"/>
<g opacity="0.2">
<path d="M21.929 22.6608C21.929 21.8923 22.2276 21.2442 22.6435 21.0003C22.5306 20.9339 22.4107 20.8911 22.2845 20.8911C21.6912 20.8911 21.2109 21.6837 21.2109 22.6608C21.2109 23.6379 21.6913 24.4304 22.2845 24.4304C22.4106 24.4304 22.5305 24.3876 22.6435 24.3213C22.2276 24.0774 21.929 23.4291 21.929 22.6608Z" fill="black"/>
</g>
<g opacity="0.3">
<path d="M44.1808 2.49414H45.6169V31.5058H44.1808V2.49414Z" fill="white"/>
</g>
<g opacity="0.3">
<rect x="0.382446" y="2.49414" width="1.43597" height="29.0117" fill="#3A3847"/>
</g>
<g opacity="0.3">
<path d="M24.0767 0.371582H24.7946V33.6288H24.0767V0.371582Z" fill="white"/>
</g>
<g opacity="0.3">
<path d="M19.7686 0.371582H20.4866V33.6288H19.7686V0.371582Z" fill="#3A3847"/>
</g>
<path fill-rule="evenodd" clip-rule="evenodd" d="M19.7686 33.9824H24.7946C24.9931 33.9824 25.1537 33.8242 25.1536 33.6286V0.371391C25.1536 0.175802 24.9931 0.0175781 24.7946 0.0175781H19.7686C19.5702 0.0175781 19.4096 0.175891 19.4096 0.371391V33.6286C19.4096 33.8242 19.5702 33.9824 19.7686 33.9824ZM24.4356 33.2749H20.1276V0.725115H24.4356V33.2749Z" fill="#3A3847"/>
<path fill-rule="evenodd" clip-rule="evenodd" d="M20.8457 17.0002C20.8457 18.1908 21.4767 19.123 22.2817 19.123C23.0866 19.123 23.7177 18.1908 23.7177 17.0002C23.7177 15.81 23.0866 14.8774 22.2817 14.8774C21.4767 14.8774 20.8457 15.81 20.8457 17.0002ZM21.5637 17.0001C21.5637 16.1902 21.943 15.585 22.2817 15.585C22.6203 15.585 22.9996 16.1902 22.9996 17.0001C22.9996 17.81 22.6203 18.4153 22.2817 18.4153C21.9431 18.4153 21.5637 17.81 21.5637 17.0001Z" fill="#3A3847"/>
<path fill-rule="evenodd" clip-rule="evenodd" d="M20.8457 22.6603C20.8457 23.8509 21.4767 24.7837 22.2817 24.7837C23.0866 24.7837 23.7177 23.8509 23.7177 22.6603C23.7177 21.4703 23.0866 20.5381 22.2817 20.5381C21.4767 20.5381 20.8457 21.4703 20.8457 22.6603ZM21.5637 22.6603C21.5637 21.8511 21.943 21.2457 22.2817 21.2457C22.6203 21.2457 22.9996 21.8511 22.9996 22.6603C22.9996 23.4708 22.6203 24.0761 22.2817 24.0761C21.9431 24.0761 21.5637 23.4708 21.5637 22.6603Z" fill="#3A3847"/>
<path fill-rule="evenodd" clip-rule="evenodd" d="M20.8457 11.3391C20.8457 12.5294 21.4767 13.462 22.2817 13.462C23.0866 13.462 23.7177 12.5294 23.7177 11.3391C23.7177 10.1488 23.0866 9.21631 22.2817 9.21631C21.4767 9.21631 20.8457 10.1488 20.8457 11.3391ZM21.5637 11.3391C21.5637 10.5293 21.943 9.92393 22.2817 9.92393C22.6203 9.92393 22.9996 10.5293 22.9996 11.3391C22.9996 12.149 22.6203 12.7543 22.2817 12.7543C21.9431 12.7543 21.5637 12.149 21.5637 11.3391Z" fill="#3A3847"/>
<path fill-rule="evenodd" clip-rule="evenodd" d="M24.578 33.9106C24.6411 33.9576 24.7175 33.9825 24.7946 33.9825C24.827 33.9825 24.8599 33.9783 24.8914 33.9694L42.8415 29.0163C42.9965 28.9733 43.1038 28.8345 43.1038 28.6755V5.32463C43.1038 5.16605 42.9965 5.02677 42.8415 4.98392L24.8914 0.0307222C24.7848 0.000706602 24.6677 0.022842 24.578 0.0895139C24.4883 0.15654 24.4356 0.260842 24.4356 0.371431V33.6286C24.4356 33.7392 24.4883 33.8435 24.578 33.9106ZM25.1537 33.1622V0.837868L42.3859 5.59309V28.4074L25.1537 33.1622Z" fill="#3A3847"/>
<path d="M19.0506 2.84825H0.382453C0.184078 2.84825 0.0234375 2.69003 0.0234375 2.49444C0.0234375 2.29894 0.184078 2.14062 0.382453 2.14062H19.0506C19.249 2.14062 19.4097 2.29894 19.4097 2.49444C19.4097 2.69003 19.249 2.84825 19.0506 2.84825Z" fill="#3A3847"/>
<path d="M19.0506 31.8595H0.382453C0.184078 31.8595 0.0234375 31.7013 0.0234375 31.5057C0.0234375 31.3101 0.184078 31.1519 0.382453 31.1519H19.0506C19.249 31.1519 19.4097 31.3101 19.4097 31.5057C19.4097 31.7013 19.249 31.8595 19.0506 31.8595Z" fill="#3A3847"/>
<path d="M0.382453 31.8599C0.184078 31.8599 0.0234375 31.7017 0.0234375 31.5061V2.49444C0.0234375 2.29894 0.184078 2.14062 0.382453 2.14062C0.580918 2.14062 0.741469 2.29894 0.741469 2.49444V31.5061C0.741469 31.7017 0.580918 31.8599 0.382453 31.8599Z" fill="#3A3847"/>
<path d="M45.6169 2.84825H36.2828C36.0844 2.84825 35.9238 2.69003 35.9238 2.49444C35.9238 2.29894 36.0844 2.14062 36.2828 2.14062H45.6169C45.8153 2.14062 45.9758 2.29894 45.9758 2.49444C45.9758 2.69003 45.8153 2.84825 45.6169 2.84825Z" fill="#3A3847"/>
<path d="M45.6169 31.8599C45.4184 31.8599 45.2579 31.7017 45.2579 31.5061V2.49444C45.2579 2.29894 45.4184 2.14062 45.6169 2.14062C45.8153 2.14062 45.9758 2.29894 45.9758 2.49444V31.5061C45.9758 31.7017 45.8153 31.8599 45.6169 31.8599Z" fill="#3A3847"/>
<path d="M45.6169 31.8595H36.2828C36.0844 31.8595 35.9238 31.7013 35.9238 31.5057C35.9238 31.3101 36.0844 31.1519 36.2828 31.1519H45.6169C45.8153 31.1519 45.9758 31.3101 45.9758 31.5057C45.9758 31.7013 45.8153 31.8595 45.6169 31.8595Z" fill="#3A3847"/>
<path d="M19.0506 29.0294H3.25449C3.05612 29.0294 2.89548 28.8711 2.89548 28.6756C2.89548 28.48 3.05603 28.3218 3.25449 28.3218H19.0506C19.249 28.3218 19.4097 28.48 19.4097 28.6756C19.4097 28.8711 19.249 29.0294 19.0506 29.0294Z" fill="#3A3847"/>
<path d="M3.25449 29.0292C3.05612 29.0292 2.89548 28.8708 2.89548 28.6753V5.32452C2.89548 5.12902 3.05603 4.9707 3.25449 4.9707C3.45296 4.9707 3.61351 5.12893 3.61351 5.32452V28.6754C3.61351 28.8708 3.45296 29.0292 3.25449 29.0292Z" fill="#3A3847"/>
<path d="M19.0506 5.67833H3.25449C3.05612 5.67833 2.89548 5.5201 2.89548 5.32452C2.89548 5.12902 3.05603 4.9707 3.25449 4.9707H19.0506C19.249 4.9707 19.4097 5.12893 19.4097 5.32452C19.4097 5.5201 19.249 5.67833 19.0506 5.67833Z" fill="#3A3847"/>
<path d="M29.82 20.8916C28.4113 20.8916 27.3077 19.182 27.3077 16.9998C27.3077 14.8176 28.4113 13.1079 29.82 13.1079C30.0185 13.1079 30.179 13.2661 30.179 13.4617C30.179 13.6572 30.0185 13.8155 29.82 13.8155C28.8475 13.8155 28.0257 15.2736 28.0257 16.9998C28.0257 18.726 28.8474 20.1839 29.82 20.1839C30.0185 20.1839 30.179 20.3422 30.179 20.5377C30.179 20.7334 30.0185 20.8916 29.82 20.8916Z" fill="#3A3847"/>
<path fill-rule="evenodd" clip-rule="evenodd" d="M28.7437 17.0002C28.7437 18.0554 29.1385 19.123 29.8923 19.123C29.9666 19.123 37.3598 18.4962 37.3598 17.0002C37.3598 15.5045 29.9666 14.8774 29.8923 14.8774C29.1386 14.8774 28.7437 15.9453 28.7437 17.0002ZM29.4617 17.0001C29.4617 16.0694 29.7927 15.5995 29.8923 15.585C30.6916 15.5853 35.9862 16.362 36.6131 16.9998C35.9848 17.638 30.693 18.4146 29.893 18.4153C29.792 18.3995 29.4617 17.9274 29.4617 17.0001Z" fill="#3A3847"/>
<path d="M31.2582 14.7199C31.1424 14.7199 31.0289 14.6649 30.9594 14.5627C30.6327 14.0814 30.2281 13.816 29.82 13.816C29.6216 13.816 29.461 13.6578 29.461 13.4622C29.461 13.2666 29.6216 13.1084 29.82 13.1084C30.4756 13.1084 31.0919 13.485 31.5568 14.1694C31.6669 14.3318 31.6227 14.5515 31.4579 14.6601C31.3962 14.7005 31.3269 14.7199 31.2582 14.7199Z" fill="#3A3847"/>
<path d="M29.82 20.892C29.6216 20.892 29.461 20.7337 29.461 20.5381C29.461 20.3426 29.6216 20.1843 29.82 20.1843C30.2281 20.1843 30.6327 19.919 30.9594 19.438C31.0702 19.2749 31.2925 19.2322 31.458 19.3406C31.6227 19.4491 31.6669 19.6688 31.5569 19.8312C31.0919 20.5154 30.4756 20.892 29.82 20.892Z" fill="#3A3847"/>
<path d="M30.5394 17.7076C30.341 17.7076 30.1805 17.5494 30.1805 17.3542L30.1798 16.6466C30.1798 16.4511 30.3403 16.2928 30.538 16.2925C30.5387 16.2925 30.5387 16.2925 30.5387 16.2925C30.7372 16.2925 30.8977 16.4507 30.8977 16.6459L30.8984 17.3535C30.8984 17.5491 30.7379 17.7073 30.5394 17.7076Z" fill="#3A3847"/>
<path d="M1.81843 33.275C1.62005 33.275 1.45941 33.1167 1.45941 32.9212V32.2136C1.45941 32.0181 1.62005 31.8599 1.81843 31.8599C2.01689 31.8599 2.17744 32.0181 2.17744 32.2136V32.9212C2.17744 33.1166 2.01689 33.275 1.81843 33.275Z" fill="#3A3847"/>
<path d="M8.28053 33.275H1.81843C1.62005 33.275 1.45941 33.1167 1.45941 32.9212C1.45941 32.7256 1.62005 32.5674 1.81843 32.5674H8.28053C8.4789 32.5674 8.63954 32.7256 8.63954 32.9212C8.63954 33.1166 8.4789 33.275 8.28053 33.275Z" fill="#3A3847"/>
<path d="M8.28052 33.275C8.08206 33.275 7.92151 33.1167 7.92151 32.9212V32.2136C7.92151 32.0181 8.08206 31.8599 8.28052 31.8599C8.4789 31.8599 8.63954 32.0181 8.63954 32.2136V32.9212C8.63954 33.1166 8.4789 33.275 8.28052 33.275Z" fill="#3A3847"/>
<path d="M37.7187 33.275C37.5204 33.275 37.3598 33.1167 37.3598 32.9212V32.2136C37.3598 32.0181 37.5204 31.8599 37.7187 31.8599C37.9172 31.8599 38.0777 32.0181 38.0777 32.2136V32.9212C38.0777 33.1166 37.9172 33.275 37.7187 33.275Z" fill="#3A3847"/>
<path d="M44.1808 33.275H37.7187C37.5204 33.275 37.3598 33.1167 37.3598 32.9212C37.3598 32.7256 37.5204 32.5674 37.7187 32.5674H44.1808C44.3793 32.5674 44.5398 32.7256 44.5398 32.9212C44.5398 33.1166 44.3793 33.275 44.1808 33.275Z" fill="#3A3847"/>
<path d="M44.1808 33.275C43.9825 33.275 43.8218 33.1167 43.8218 32.9212V32.2136C43.8218 32.0181 43.9825 31.8599 44.1808 31.8599C44.3793 31.8599 44.5399 32.0181 44.5399 32.2136V32.9212C44.5399 33.1166 44.3793 33.275 44.1808 33.275Z" fill="#3A3847"/>
<path d="M4.69046 27.6142C4.59864 27.6142 4.50682 27.5796 4.43665 27.5106C4.29641 27.3723 4.29641 27.1484 4.43665 27.0103L7.30869 24.1799C7.44902 24.0416 7.67615 24.0416 7.8163 24.1799C7.95664 24.3181 7.95664 24.5419 7.8163 24.6802L4.94427 27.5106C4.87419 27.5796 4.78228 27.6142 4.69046 27.6142Z" fill="#3A3847"/>
<path d="M7.56249 9.92416C7.47067 9.92416 7.37885 9.88963 7.30869 9.82056L4.43665 6.99015C4.29641 6.85194 4.29641 6.6281 4.43665 6.48989C4.5769 6.35168 4.80411 6.35168 4.94427 6.48989L7.8163 9.3203C7.95664 9.45852 7.95664 9.68235 7.8163 9.82056C7.74623 9.88963 7.65432 9.92416 7.56249 9.92416Z" fill="#3A3847"/>
<path d="M19.0506 9.92393H7.56249C7.36412 9.92393 7.20348 9.76571 7.20348 9.57012C7.20348 9.37453 7.36412 9.21631 7.56249 9.21631H19.0506C19.249 9.21631 19.4096 9.37453 19.4096 9.57012C19.4096 9.76571 19.249 9.92393 19.0506 9.92393Z" fill="#3A3847"/>
<path d="M19.0506 24.7837H7.56249C7.36412 24.7837 7.20348 24.6255 7.20348 24.4299C7.20348 24.2344 7.36412 24.0762 7.56249 24.0762H19.0506C19.249 24.0762 19.4096 24.2344 19.4096 24.4299C19.4096 24.6255 19.249 24.7837 19.0506 24.7837Z" fill="#3A3847"/>
<path d="M7.56249 23.3686C7.36412 23.3686 7.20348 23.2104 7.20348 23.0149V10.9856C7.20348 10.7901 7.36412 10.6318 7.56249 10.6318C7.76096 10.6318 7.92151 10.7901 7.92151 10.9856V23.0149C7.92151 23.2104 7.76096 23.3686 7.56249 23.3686Z" fill="#3A3847"/>
<path d="M22.2817 7.09372C22.0832 7.09372 21.9227 6.93549 21.9227 6.7399V3.20196C21.9227 3.00637 22.0832 2.84814 22.2817 2.84814C22.4801 2.84814 22.6407 3.00637 22.6407 3.20196V6.7399C22.6406 6.93549 22.4801 7.09372 22.2817 7.09372Z" fill="#3A3847"/>
<path d="M22.2817 31.1518C22.0832 31.1518 21.9227 30.9936 21.9227 30.798V27.2601C21.9227 27.0645 22.0832 26.9062 22.2817 26.9062C22.4801 26.9062 22.6407 27.0645 22.6407 27.2601V30.798C22.6406 30.9936 22.4801 31.1518 22.2817 31.1518Z" fill="#3A3847"/>
<g opacity="0.4">
<path d="M3.25449 28.6755H19.7686V5.32471L3.25449 28.6755Z" fill="black"/>
</g>
</svg>
