<svg width="34" height="11" viewBox="0 0 34 11" fill="none" xmlns="http://www.w3.org/2000/svg">
<path d="M12.9074 0.193611L8.45753 10.8139H5.55336L3.36225 2.33907C3.23003 1.81648 3.11512 1.62602 2.71059 1.40565C2.04633 1.04676 0.958642 0.711481 3.05176e-05 0.50213L0.0645676 0.187315H4.73957C5.04388 0.188882 5.3377 0.298708 5.56843 0.497134C5.79915 0.69556 5.95173 0.969629 5.99883 1.27028L7.15577 7.41704L10.0237 0.193611H12.9074ZM24.288 7.3462C24.3006 4.54435 20.4126 4.39009 20.4394 3.13713C20.4473 2.7562 20.8109 2.35009 21.6042 2.24778C22.5333 2.15803 23.4693 2.3212 24.3132 2.72L24.7964 0.472222C23.9743 0.163813 23.104 0.00392117 22.226 0C19.5185 0 17.5982 1.44343 17.5824 3.51019C17.5651 5.03704 18.9472 5.89176 19.9908 6.40176C21.0596 6.9212 21.4185 7.25491 21.4074 7.72083C21.4074 8.43389 20.5527 8.74713 19.7625 8.75972C18.3821 8.78176 17.5793 8.38667 16.9402 8.08917L16.4491 10.4156C17.0913 10.7116 18.2766 10.9681 19.5044 10.9807C22.3912 10.9807 24.2785 9.55463 24.288 7.3462ZM31.4595 10.8092H34L31.7822 0.193611H29.4352C29.1849 0.192541 28.94 0.266093 28.7316 0.404875C28.5233 0.543657 28.3611 0.741372 28.2657 0.972778L24.1448 10.8139H27.03L27.603 9.22722H31.1273L31.4595 10.8092ZM28.3932 7.05185L29.8398 3.06315L30.6724 7.05185H28.3932ZM16.8426 0.193611L14.5634 10.8139H11.815L14.088 0.193611H16.8426Z" fill="url(#paint0_linear)"/>
<defs>
<linearGradient id="paint0_linear" x1="3.05176e-05" y1="5.49037" x2="34" y2="5.49037" gradientUnits="userSpaceOnUse">
<stop stop-color="#231F5C"/>
<stop offset="1" stop-color="#034EA2"/>
</linearGradient>
</defs>
</svg>
